<svg width="45" height="45" viewBox="0 0 45 45" fill="none" xmlns="http://www.w3.org/2000/svg">
<g id="24 / maps / route">
<path id="icon" fill-rule="evenodd" clip-rule="evenodd" d="M11.25 41.25C13.6992 41.25 15.7827 39.6847 16.5549 37.5H32.8125C37.4724 37.5 41.25 33.7224 41.25 29.0625C41.25 24.4026 37.4724 20.625 32.8125 20.625H12.1875C9.59867 20.625 7.5 18.5263 7.5 15.9375C7.5 13.3487 9.59867 11.25 12.1875 11.25H17.9733L15.5492 13.6742L18.2008 16.3258L25.1516 9.375L18.2008 2.42418L15.5492 5.07583L17.9733 7.5H12.1875C7.5276 7.5 3.75 11.2776 3.75 15.9375C3.75 20.5974 7.5276 24.375 12.1875 24.375H32.8125C35.4013 24.375 37.5 26.4737 37.5 29.0625C37.5 31.6513 35.4013 33.75 32.8125 33.75H16.5549C15.7827 31.5653 13.6992 30 11.25 30C8.1434 30 5.625 32.5184 5.625 35.625C5.625 38.7316 8.1434 41.25 11.25 41.25ZM9.375 35.625C9.375 34.5895 10.2145 33.75 11.25 33.75C12.2855 33.75 13.125 34.5895 13.125 35.625C13.125 36.6605 12.2855 37.5 11.25 37.5C10.2145 37.5 9.375 36.6605 9.375 35.625ZM33.75 3.75C36.8566 3.75 39.375 6.2684 39.375 9.375C39.375 12.4816 36.8566 15 33.75 15C30.6434 15 28.125 12.4816 28.125 9.375C28.125 6.2684 30.6434 3.75 33.75 3.75ZM31.875 9.375C31.875 8.33947 32.7145 7.5 33.75 7.5C34.7855 7.5 35.625 8.33947 35.625 9.375C35.625 10.4105 34.7855 11.25 33.75 11.25C32.7145 11.25 31.875 10.4105 31.875 9.375Z" fill="black"/>
</g>
</svg>
