<svg width="48" height="48" viewBox="0 0 48 48" fill="none" xmlns="http://www.w3.org/2000/svg">
<path fill-rule="evenodd" clip-rule="evenodd" d="M24 46C11.8497 46 2 36.1503 2 24C2 11.8497 11.8497 2 24 2C36.1503 2 46 11.8497 46 24C46 36.1503 36.1503 46 24 46ZM24 42C33.9411 42 42 33.9411 42 24C42 14.0589 33.9411 6 24 6C14.0589 6 6 14.0589 6 24C6 33.9411 14.0589 42 24 42ZM29.5811 29.5811L35.1623 12.8377L18.4189 18.4189L12.8377 35.1623L29.5811 29.5811ZM26.4189 26.4189L19.1623 28.8377L21.5811 21.5811L28.8377 19.1623L26.4189 26.4189Z" fill="black"/>
</svg>
